<?xml version="1.0" standalone="no"?><!DOCTYPE svg PUBLIC "-//W3C//DTD SVG 1.1//EN" "http://www.w3.org/Graphics/SVG/1.1/DTD/svg11.dtd"><svg class="icon" viewBox="0 0 1024 1024" version="1.1" xmlns="http://www.w3.org/2000/svg"
                                                                                                                                            width="128" height="128" xmlns:xlink="http://www.w3.org/1999/xlink"><defs><style type="text/css"></style></defs><path d="M48 324.8S44.8 304 68.8 304H224S387.2 128 545.6 68.8h57.6v828.8H544s-180.8-68.8-320-236.8H65.6S48 660.8 48 640V324.8z"
                                                                                                                                                                                                                                                                  fill="#5a5e66"></path><path d="M700.8 209.6l139.2-121.6s86.4-14.4 75.2 60.8c-54.4 60.8-140.8 139.2-140.8 139.2s-102.4 25.6-73.6-78.4zM769.6 668.8l137.6 137.6s20.8 89.6-57.6 83.2c-67.2-52.8-156.8-137.6-156.8-137.6s-33.6-104 76.8-83.2z" fill="#5a5e66"></path><path d="M739.2 464s-9.6-40 38.4-40h176s41.6-9.6 41.6 40-8 57.6-40 57.6H760s-27.2 9.6-20.8-57.6z" fill="#5a5e66"></path></svg>
